<svg width="75" height="15" viewBox="0 0 75 15" fill="none" xmlns="http://www.w3.org/2000/svg">
<path d="M13.3495 0H4.79856L0.5 7.5L4.79856 15H13.3495L17.648 7.5L13.3495 0ZM10.8997 6.42857C11.4082 7.03416 12.0091 7.54658 12.6099 7.91925V10.528C12.0091 10.1087 11.4082 9.78261 10.8997 9.64286V6.42857ZM8.45003 3.12112V2.18944H9.698V3.12112C9.698 3.63354 9.79044 4.14596 9.88289 4.6118H8.21893C8.35759 4.14596 8.45003 3.63354 8.45003 3.12112ZM9.97533 5.49689V9.31677H8.26515V5.49689H9.97533ZM4.6599 11.2733C4.56746 11.3199 4.47502 11.413 4.42879 11.5062L2.81106 8.71118H3.1346C3.55059 8.71118 4.05903 8.61801 4.61368 8.38509V11.2733H4.6599ZM3.1346 7.31366H2.21018L5.58432 1.39752H7.0634V3.12112C7.0634 5.82298 4.29013 7.31366 3.1346 7.31366ZM7.34072 6.3354V9.59627C6.78607 9.78261 6.1852 10.0621 5.5381 10.528V7.91925C6.23142 7.54658 6.83229 6.98758 7.34072 6.3354ZM12.5637 13.5559H5.58432L4.89101 12.2981C6.78607 10.4348 8.03404 10.2484 9.09713 10.2484C10.114 10.2484 11.4082 10.4348 13.3032 12.2981L12.5637 13.5559ZM11.0846 3.12112V1.39752H12.5637L15.9379 7.31366H15.0134C13.8579 7.31366 11.0846 5.82298 11.0846 3.12112ZM13.7655 11.5062C13.673 11.413 13.6268 11.3665 13.5344 11.2733V8.38509C14.089 8.61801 14.5974 8.71118 15.0134 8.71118H15.337L13.7655 11.5062Z" fill="#0936A1"/>
<path d="M8.03404 12.5776H7.57183L7.61805 12.5311C7.71049 12.4379 7.75671 12.3913 7.80294 12.3447C7.84916 12.2981 7.89538 12.2516 7.89538 12.205C7.9416 12.1584 7.98782 12.1118 7.98782 12.0186C7.98782 11.9255 8.03404 11.9255 8.03404 11.8789C8.03404 11.8323 8.03404 11.7391 7.98782 11.6925C7.9416 11.646 7.89538 11.646 7.84916 11.5994C7.80294 11.5528 7.71049 11.5528 7.61805 11.5528C7.52561 11.5528 7.47939 11.5528 7.43317 11.5994C7.38695 11.646 7.34072 11.646 7.2945 11.6925C7.24828 11.7391 7.24828 11.7857 7.24828 11.8789V11.972H7.43317V11.9255C7.43317 11.8789 7.43317 11.8323 7.47939 11.8323C7.52561 11.7857 7.52561 11.7857 7.57183 11.7857C7.61805 11.7857 7.66427 11.7857 7.66427 11.8323C7.71049 11.8789 7.71049 11.8789 7.71049 11.9255C7.71049 11.972 7.66427 12.0652 7.57183 12.205C7.52561 12.2516 7.52561 12.2981 7.47939 12.2981C7.47939 12.2981 7.43317 12.3447 7.38695 12.4379C7.34072 12.4845 7.2945 12.5776 7.20206 12.6242C7.20206 12.6242 7.20206 12.6242 7.20206 12.6708V12.8106H7.98782L8.03404 12.5776Z" fill="#0936A1"/>
<path d="M8.58869 11.5528C8.45003 11.5528 8.35759 11.5994 8.31137 11.646C8.21893 11.6925 8.21893 11.8323 8.21893 11.9255V12.3913C8.21893 12.5311 8.26515 12.6242 8.31137 12.6708C8.40381 12.764 8.49625 12.764 8.58869 12.764C8.68114 12.764 8.8198 12.7174 8.86602 12.6708C8.91224 12.6242 8.95846 12.4845 8.95846 12.3913V11.9255C8.95846 11.7857 8.91224 11.6925 8.86602 11.646C8.8198 11.5994 8.72736 11.5528 8.58869 11.5528ZM8.77358 12.3913C8.77358 12.4379 8.77358 12.4845 8.72736 12.5311C8.68114 12.5776 8.63492 12.5776 8.58869 12.5776C8.54247 12.5776 8.49625 12.5776 8.45003 12.5311C8.40381 12.4845 8.40381 12.4379 8.40381 12.3913V11.9255C8.40381 11.8789 8.40381 11.8323 8.45003 11.7857C8.49625 11.7391 8.54247 11.7391 8.58869 11.7391C8.63492 11.7391 8.68114 11.7391 8.72736 11.7857C8.77358 11.8323 8.77358 11.8789 8.77358 11.9255V12.3913Z" fill="#0936A1"/>
<path d="M9.18957 11.972H9.37445V11.9255C9.37445 11.8789 9.37445 11.8323 9.42067 11.8323C9.4669 11.7857 9.4669 11.7857 9.51312 11.7857C9.55934 11.7857 9.60556 11.7857 9.60556 11.8323C9.65178 11.8789 9.65178 11.8789 9.65178 11.9255C9.65178 11.972 9.60556 12.0652 9.51312 12.205C9.4669 12.2516 9.4669 12.2981 9.42067 12.2981C9.42067 12.2981 9.37445 12.3447 9.32823 12.4379C9.28201 12.4845 9.23579 12.5776 9.14335 12.6242C9.14335 12.6242 9.14335 12.6242 9.14335 12.6708V12.8106H9.92911V12.5776H9.4669L9.51312 12.5311C9.60556 12.4379 9.65178 12.3913 9.698 12.3447C9.74422 12.2981 9.79044 12.2516 9.79044 12.205C9.83666 12.1584 9.88289 12.1118 9.88289 12.0186C9.88289 11.9255 9.92911 11.9255 9.92911 11.8789C9.92911 11.8323 9.92911 11.7391 9.88289 11.6925C9.88289 11.646 9.83666 11.646 9.74422 11.5994C9.698 11.5528 9.60556 11.5528 9.51312 11.5528C9.42067 11.5528 9.37445 11.5528 9.32823 11.5994C9.28201 11.646 9.23579 11.646 9.18957 11.6925C9.14335 11.7391 9.14335 11.7857 9.14335 11.8789L9.18957 11.972C9.14335 11.972 9.14335 11.972 9.18957 11.972Z" fill="#0936A1"/>
<path d="M10.114 11.972H10.2989V11.9255C10.2989 11.8789 10.2989 11.8323 10.3451 11.8323C10.3913 11.7857 10.3913 11.7857 10.4375 11.7857C10.4838 11.7857 10.53 11.7857 10.53 11.8323C10.5762 11.8789 10.5762 11.8789 10.5762 11.9255C10.5762 11.972 10.53 12.0652 10.4375 12.205C10.3913 12.2516 10.3913 12.2981 10.3451 12.2981C10.3451 12.2981 10.2989 12.3447 10.2527 12.4379C10.2064 12.4845 10.1602 12.5776 10.0678 12.6242C10.0678 12.6242 10.0678 12.6242 10.0678 12.6708V12.8106H10.8535V12.5776H10.3913L10.4375 12.5311C10.53 12.4379 10.5762 12.3913 10.6224 12.3447C10.6686 12.2981 10.7149 12.2516 10.7149 12.205C10.7611 12.1584 10.8073 12.1118 10.8073 12.0186C10.8073 11.9255 10.8535 11.9255 10.8535 11.8789C10.8535 11.8323 10.8535 11.7391 10.8073 11.6925C10.7611 11.646 10.7149 11.5994 10.6686 11.5528C10.6224 11.5062 10.53 11.5062 10.4375 11.5062C10.3451 11.5062 10.2989 11.5062 10.2527 11.5528C10.2064 11.5994 10.1602 11.5994 10.114 11.646C10.0678 11.6925 10.0678 11.7391 10.0678 11.8323L10.114 11.972Z" fill="#0936A1"/>
<path d="M23.4719 3.1677C24.6274 3.1677 24.7661 4.56522 24.7661 4.98447H27.1234C27.1234 4.98447 27.0771 1.25776 23.4719 1.1646C20.0053 1.11801 19.8204 3.81988 19.8204 4.75155C19.8204 5.54348 20.0978 7.17391 23.287 8.43168C23.287 8.43168 24.8585 9.03727 24.8585 10.2019C24.8585 11.3665 23.9341 11.413 23.4719 11.413C23.0097 11.413 21.9004 11.3199 21.9004 9.59627H19.4969C19.4969 9.59627 19.4044 13.7422 23.4257 13.7422C25.2745 13.7422 27.1696 12.5311 27.1696 10.0621C27.1696 7.68634 25.4594 6.98758 23.7954 6.28882C23.0097 5.96273 22.1315 5.26397 22.1315 4.37888C22.1315 3.72671 22.5937 3.1677 23.4719 3.1677Z" fill="#0936A1"/>
<path d="M28.0016 13.323H30.0815V8.43168H33.6868V6.47515H30.0815V3.4472H34.149V1.35093H28.0016V13.323Z" fill="#0936A1"/>
<path d="M38.956 1.58385H34.9347V13.323H38.8635C40.7124 13.323 42.2377 11.7857 42.2377 9.92236V9.68944C42.2377 8.75776 41.8217 7.87267 41.2208 7.26708C41.8679 6.66149 42.2377 5.82298 42.2377 4.8913C42.2377 3.02795 40.7586 1.58385 38.956 1.58385ZM40.2964 9.92236C40.2964 10.7143 39.6493 11.413 38.8173 11.413H37.1996V8.24534H38.8635C39.6955 8.24534 40.3426 8.89752 40.3426 9.73602V9.92236H40.2964ZM38.956 6.28882C38.9097 6.28882 38.8635 6.28882 38.8635 6.28882H37.2458V3.4472H39.0022C39.7879 3.4472 40.435 4.09938 40.435 4.8913C40.435 5.68323 39.7417 6.28882 38.956 6.28882Z" fill="#0936A1"/>
<path d="M71.4494 1.58385H51.8979L50.7423 8.99068L49.3557 1.58385H47.2295L45.8429 8.99068L44.6874 1.58385H42.5612L44.4101 13.323H46.4438L48.2464 5.91615L50.049 13.323H74.5V4.65838C74.5 2.93478 73.1596 1.58385 71.4494 1.58385ZM55.272 9.73602H57.7217C57.768 9.73602 57.768 9.73602 57.8142 9.78261C57.8142 9.78261 57.8142 9.82919 57.8142 9.87578L57.7217 10.854C57.7217 10.9006 57.6755 10.9006 57.6755 10.9472C57.6293 10.9472 57.6293 10.9938 57.5831 10.9938H53.5156C53.4694 10.9938 53.4694 10.9938 53.4232 10.9472C53.4232 10.9006 53.4232 10.9006 53.4232 10.854L53.5156 9.92236C53.5156 9.87578 53.5618 9.82919 53.6081 9.78261C54.0703 9.31677 54.6249 8.75776 55.272 8.05901L55.8729 7.40683C56.4738 6.70807 56.8435 6.24224 56.8898 5.86957V5.7764C56.8898 5.59006 56.7973 5.40373 56.7049 5.26398C56.5662 5.12422 56.3813 5.07764 56.1502 5.07764C55.9191 5.07764 55.688 5.17081 55.5493 5.31056C55.3645 5.45031 55.272 5.68323 55.272 5.91615L55.2258 6.14907C55.2258 6.19565 55.2258 6.19565 55.1796 6.24224C55.1796 6.28882 55.1334 6.28882 55.0871 6.28882H54.024C53.9778 6.28882 53.9778 6.28882 53.9316 6.24224C53.9316 6.24224 53.8854 6.19565 53.9316 6.14907L53.9778 5.68323C54.0703 5.12422 54.3476 4.70497 54.7636 4.3323C55.1796 4.00621 55.688 3.81988 56.2889 3.81988C56.6586 3.81988 57.0284 3.91304 57.3057 4.05279C57.5831 4.19255 57.8142 4.42547 57.9528 4.65838C58.0915 4.93789 58.1839 5.21739 58.1839 5.59006C58.1839 5.91615 58.0915 6.24224 57.9528 6.56832C57.8142 6.89441 57.5368 7.26708 57.2133 7.63975C56.9822 7.87267 56.7511 8.15217 56.4275 8.47826C56.104 8.80435 55.7804 9.13043 55.5031 9.45652L55.272 9.68944C55.2258 9.68944 55.2258 9.68944 55.272 9.73602C55.2258 9.73602 55.2258 9.73602 55.272 9.73602ZM59.9866 11.087C59.3857 11.087 58.9235 10.9006 58.5537 10.5745C58.2302 10.2484 58.0453 9.73602 58.0453 9.13043C58.0453 8.99068 58.0453 8.85093 58.0453 8.75776L58.3688 6.10248C58.4613 5.40373 58.6924 4.84472 59.1546 4.42547C59.6168 4.00621 60.1252 3.81988 60.8185 3.81988C61.4194 3.81988 61.8816 4.00621 62.2514 4.3323C62.6212 4.65839 62.7598 5.12422 62.7598 5.72981C62.7598 5.86956 62.7598 6.00932 62.7598 6.10248L62.4825 8.75776C62.3901 9.45652 62.159 10.0155 61.6967 10.4348C61.1883 10.854 60.6337 11.087 59.9866 11.087ZM66.6886 10.854C66.6886 10.9006 66.6886 10.9006 66.6424 10.9472C66.6424 10.9472 66.5962 10.9938 66.55 10.9938H62.4363C62.3901 10.9938 62.3901 10.9938 62.3438 10.9472C62.3438 10.9006 62.2976 10.9006 62.3438 10.854L62.4363 9.92236C62.4363 9.87578 62.4825 9.82919 62.5287 9.78261C62.9909 9.31677 63.5456 8.75776 64.1927 8.05901L64.7936 7.40683C65.4407 6.70807 65.7642 6.24224 65.8104 5.86957V5.7764C65.8104 5.59006 65.7642 5.40373 65.6255 5.26398C65.4869 5.12422 65.302 5.07764 65.0709 5.07764C64.8398 5.07764 64.6087 5.17081 64.47 5.31056C64.2851 5.45031 64.1927 5.68323 64.1927 5.91615L64.1465 6.14907C64.1465 6.19565 64.1465 6.19565 64.1003 6.24224C64.1003 6.28882 64.054 6.28882 64.0078 6.28882H62.9447C62.8985 6.28882 62.8985 6.28882 62.8523 6.24224C62.8523 6.24224 62.8523 6.19565 62.8523 6.14907L62.8985 5.68323C62.9909 5.12422 63.2683 4.70497 63.6843 4.3323C64.1002 4.00621 64.6087 3.81988 65.2096 3.81988C65.6255 3.81988 65.9491 3.91304 66.2264 4.05279C66.5037 4.19255 66.7349 4.42547 66.8735 4.65838C67.0122 4.93789 67.1046 5.21739 67.1046 5.59006C67.1046 5.91615 67.0122 6.24224 66.8735 6.56832C66.6886 6.89441 66.4575 7.26708 66.134 7.63975C65.9029 7.87267 65.6718 8.15217 65.3482 8.47826C65.0247 8.80435 64.7011 9.13043 64.4238 9.45652L64.1927 9.68944V9.73602C64.1927 9.73602 64.1927 9.73602 64.2389 9.73602H66.6886C66.7348 9.73602 66.7348 9.73602 66.7811 9.78261C66.7811 9.78261 66.7811 9.82919 66.7811 9.87578L66.6886 10.854ZM71.3107 6.56832C71.1721 6.89441 70.8948 7.26708 70.5712 7.63975C70.3401 7.87267 70.109 8.15217 69.7854 8.47826C69.4619 8.80435 69.1383 9.13043 68.861 9.45652L68.6299 9.68944V9.73602C68.6299 9.73602 68.6299 9.73602 68.6761 9.73602H71.1259C71.1721 9.73602 71.1721 9.73602 71.2183 9.78261C71.2183 9.78261 71.2183 9.82919 71.2183 9.87578L71.1259 10.854C71.1259 10.9006 71.1259 10.9006 71.0796 10.9472C71.0796 10.9472 71.0334 10.9938 70.9872 10.9938H66.9197C66.8735 10.9938 66.8735 10.9938 66.8273 10.9472C66.8273 10.9006 66.7811 10.9006 66.8273 10.854L66.9197 9.92236C66.9197 9.87578 66.966 9.82919 67.0122 9.78261C67.4744 9.31677 68.029 8.75776 68.6761 8.05901L69.277 7.40683C69.8779 6.70807 70.2477 6.24224 70.2939 5.86957V5.7764C70.2939 5.59006 70.2014 5.40373 70.109 5.26398C69.9703 5.12422 69.7854 5.07764 69.5543 5.07764C69.3232 5.07764 69.0921 5.17081 68.9535 5.31056C68.7686 5.45031 68.6761 5.68323 68.6761 5.91615L68.6299 6.14907C68.6299 6.19565 68.6299 6.19565 68.5837 6.24224C68.5837 6.28882 68.5375 6.28882 68.4913 6.28882H67.4282C67.3819 6.28882 67.3819 6.28882 67.3357 6.24224C67.3357 6.24224 67.3357 6.19565 67.3357 6.14907L67.3819 5.68323C67.4744 5.12422 67.7517 4.70497 68.1677 4.3323C68.5837 4.00621 69.0921 3.81988 69.693 3.81988C70.0628 3.81988 70.4325 3.91304 70.7099 4.05279C70.9872 4.19255 71.2183 4.42547 71.357 4.65838C71.4956 4.93789 71.5881 5.21739 71.5881 5.59006C71.5881 5.86957 71.4956 6.19565 71.3107 6.56832Z" fill="#0936A1"/>
<path d="M60.6799 5.03106C60.4026 5.03106 60.1715 5.12422 59.9866 5.31056C59.8017 5.49689 59.7092 5.72981 59.663 6.0559L59.3395 8.85093C59.3395 8.89752 59.3395 8.9441 59.3395 9.03727C59.3395 9.31677 59.3857 9.50311 59.5244 9.64286C59.663 9.78261 59.8479 9.87578 60.079 9.87578C60.3563 9.87578 60.5874 9.78261 60.7723 9.59627C60.9572 9.40994 61.0497 9.17702 61.0959 8.85093L61.4194 6.0559C61.4194 6.00932 61.4194 5.96273 61.4194 5.91615C61.4194 5.63665 61.3732 5.45031 61.2345 5.26398C61.0959 5.07764 60.911 5.03106 60.6799 5.03106Z" fill="#0936A1"/>
</svg>
